<svg xmlns="http://www.w3.org/2000/svg" width="141" height="49" viewBox="0 0 141 49">
  <g id="Play_Store" data-name="Play Store" transform="translate(0.245 0.109)">
    <rect id="Rectangle_24" data-name="Rectangle 24" width="141" height="49" rx="17.5" transform="translate(-0.245 -0.109)" fill="#080809"/>
    <g id="apple_2_1" data-name="apple (2) 1" transform="translate(24.545 11.26)">
      <g id="Group">
        <path id="Vector" d="M6.124,17.332C2.773,17.313,0,10.471,0,6.986,0,1.294,4.27.048,5.916.048A6.807,6.807,0,0,1,8.147.6,4.989,4.989,0,0,0,9.422.963a3.966,3.966,0,0,0,.914-.3A7.328,7.328,0,0,1,13.092,0H13.1a5.648,5.648,0,0,1,4.727,2.387l.345.518-.5.374a4.175,4.175,0,0,0-2,3.443,3.886,3.886,0,0,0,2.168,3.592c.311.187.632.38.632.8,0,.275-2.2,6.183-5.385,6.183a4.33,4.33,0,0,1-1.818-.441,3.687,3.687,0,0,0-1.619-.39,4.163,4.163,0,0,0-1.282.347,6.277,6.277,0,0,1-2.223.519Z" transform="translate(0 5.188)" fill="#fff"/>
        <path id="Vector-2" data-name="Vector" d="M4.231,0c.083,2.994-2.058,5.072-4.2,4.941C-.319,2.552,2.172,0,4.231,0Z" transform="translate(9.199)" fill="#fff"/>
      </g>
    </g>
    <text id="Avalible_on_the" data-name="Avalible on the" transform="translate(50.755 9.89)" fill="#fff" font-size="6" font-family="Poppins-Regular, Poppins"><tspan x="0" y="6">Avalible on the</tspan></text>
    <text id="Apple_Store" data-name="Apple Store" transform="translate(50.755 20.89)" fill="#fff" font-size="10" font-family="Poppins-Regular, Poppins"><tspan x="0" y="11">Apple Store</tspan></text>
  </g>
</svg>
